:SAMPLES-PER-SECOND 30
:FULLY-SPECIFIED
:DEGREES
181
root  2.29323 42.3926 -0.720346 -7.50639 -84.7952 4.61475
RightUpLeg  -25.1018 2.1186 -1.83864
RightLeg  46.1269 -10.1153 -11.3821
RightFoot  23.1097 -2.33514 7.97916
RightToes  7.56698e-010 0 -3.6325e-017
Spine  16.1105 -4.13319 -3.03974
Spine1  6.22736 -6.10606 4.87058
HEad  -21.3967 20.4878 -14.0629
LeftShoulder1  3.44669 -9.65158 -19.7355
LeftArm  -7.70464 -7.1617 -50.7335
LeftForeArm  21.4342 -45.5144 -9.85079
LeftHand  -1.1896 1.67675 36.3995
RightShoulder  1.65228 3.31996 17.6757
RightArm  -31.5314 14.504 55.3721
RightForeArm  -4.38538 24.4975 5.50283
RightHand  -2.75176 9.23139 -21.9286
LeftUpLeg  1.94255 -1.77332 -6.35745
LeftLeg  24.4282 2.94287 1.83248
LeftFoot  5.587 1.03203 -7.26794
LeftToes  -3.13779e-010 -2.47553e-011 -5.36621e-011
182
root  1.71485 41.7281 -0.127576 -14.491 -89.373 12.4509
RightUpLeg  -30.5332 3.91106 0.509662
RightLeg  41.9252 -8.93147 -8.75202
RightFoot  28.7967 -4.76387 13.5696
RightToes  7.56698e-010 0 -3.6325e-017
Spine  13.7008 -4.12492 -3.33924
Spine1  4.73008 -6.12953 6.40118
HEad  -22.7262 26.5658 -19.683
LeftShoulder1  3.32771 -8.92545 -20.3574
LeftArm  -12.3793 -1.53729 -50.0937
LeftForeArm  26.8814 -58.5844 -16.5106
LeftHand  -1.19125 1.28842 33.1803
RightShoulder  1.72228 3.38184 18.5359
RightArm  -31.3236 11.3872 54.0203
RightForeArm  -1.69343 35.5418 8.14235
RightHand  -2.62451 9.4079 -20.7125
LeftUpLeg  8.27758 -1.22191 -8.1225
LeftLeg  21.8053 3.12481 2.5603
LeftFoot  5.74927 0.514507 -3.67663
LeftToes  -3.13779e-010 -2.47553e-011 -5.36621e-011
183
root  1.03064 40.6429 0.344691 -161.522 -87.6244 160.995
RightUpLeg  -34.5921 5.25293 3.3503
RightLeg  39.0267 -8.45805 -7.53294
RightFoot  31.7527 -6.26742 16.4545
RightToes  7.56698e-010 0 -3.6325e-017
Spine  10.6724 -4.7299 -3.81001
Spine1  3.5609 -6.93161 9.20372
HEad  -24.0469 31.7081 -24.0384
LeftShoulder1  3.13383 -7.93098 -21.0272
LeftArm  -16.3495 4.9893 -48.6715
LeftForeArm  49.3024 -74.9452 -42.292
LeftHand  -1.10772 0.882307 28.1383
RightShoulder  1.87893 3.61868 20.02
RightArm  -31.0116 7.699 51.66
RightForeArm  2.76332 50.5272 13.581
RightHand  -2.27121 8.96254 -18.5354
LeftUpLeg  13.304 2.76169 -8.1559
LeftLeg  18.4505 -1.60817 1.98135
LeftFoot  5.43412 0.21136 -1.6416
LeftToes  -3.13779e-010 -2.47553e-011 -5.36621e-011
184
root  0.575516 39.3089 0.574247 -136.618 -87.2202 136.603
RightUpLeg  -35.9643 5.22606 4.86467
RightLeg  39.315 -7.74521 -7.00001
RightFoot  28.4417 -4.81583 13.6736
RightToes  7.56698e-010 0 -3.6325e-017
Spine  9.02488 -6.04893 -6.59215
Spine1  3.38486 -9.21645 13.1667
HEad  -25.3896 35.1455 -25.8889
LeftShoulder1  2.80428 -6.96819 -20.3417
LeftArm  -19.0818 9.53919 -46.7019
LeftForeArm  130.854 -77.1928 -128.936
LeftHand  -0.794432 1.44463 23.2274
RightShoulder  1.96257 3.63646 21.2099
RightArm  -32.3187 4.70061 50.8028
RightForeArm  13.1097 66.2282 26.2106
RightHand  -1.76275 7.41821 -16.2079
LeftUpLeg  17.1647 4.51388 -7.14129
LeftLeg  17.4451 -8.5476 -0.713113
LeftFoot  1.29435 0.0449351 -0.547206
LeftToes  -3.13779e-010 -2.47553e-011 -5.36621e-011
185
root  0.312327 37.8353 0.640105 -90.5206 -86.6072 90.164
RightUpLeg  -35.3984 4.84948 5.42425
RightLeg  42.6252 -8.52304 -8.6309
RightFoot  16.6524 -1.16302 4.71308
RightToes  7.56698e-010 0 -3.6325e-017
Spine  8.37218 -7.0932 -10.0038
Spine1  3.93331 -11.3941 16.074
HEad  -25.4511 35.8152 -24.5749
LeftShoulder1  2.38375 -6.23324 -17.8807
LeftArm  -21.0392 10.0749 -44.3073
LeftForeArm  155.718 -63.344 -159.506
LeftHand  -0.44904 2.89121 20.7687
RightShoulder  1.92762 3.40458 21.6536
RightArm  -34.3598 2.24529 50.8623
RightForeArm  47.523 77.8695 63.7254
RightHand  -1.38367 5.61564 -14.8342
LeftUpLeg  19.428 3.01852 -7.15663
LeftLeg  19.2516 -15.7882 -4.04166
LeftFoot  -7.80709 0.053268 0.366461
LeftToes  -3.13779e-010 -2.47553e-011 -5.36621e-011
186
root  -0.0100118 36.4179 0.763296 -87.31 -85.8326 86.9477
RightUpLeg  -35.0481 5.53146 6.27317
RightLeg  46.8413 -10.6628 -12.2224
RightFoot  1.4629 0.531057 -4.03524
RightToes  7.56698e-010 0 -3.6325e-017
Spine  7.04961 -6.83028 -10.4587
Spine1  4.39569 -11.3676 16.1246
HEad  -23.9506 33.6816 -22.2112
LeftShoulder1  2.09087 -5.81521 -15.6687
LeftArm  -23.2209 7.22298 -41.0773
LeftForeArm  157.601 -53.4995 -165.695
LeftHand  -0.254644 3.92251 19.6351
RightShoulder  1.86876 3.20678 21.5978
RightArm  -36.1211 0.52318 49.3283
RightForeArm  104.687 77.3401 122.558
RightHand  -1.14804 4.19947 -14.1052
LeftUpLeg  20.4775 -0.245735 -9.52759
LeftLeg  21.4081 -15.8202 -4.83832
LeftFoot  -18.4481 0.347262 3.53047
LeftToes  -3.13779e-010 -2.47553e-011 -5.36621e-011
187
root  -0.310345 35.6933 0.94938 -103.366 -86.5686 103.444
RightUpLeg  -35.4876 5.83663 7.59844
RightLeg  49.044 -10.9498 -13.4823
RightFoot  -6.47921 0.284169 -7.05422
RightToes  7.56698e-010 0 -3.6325e-017
Spine  5.68359 -5.73589 -8.44624
Spine1  4.6534 -10.0053 15.2172
HEad  -23.16 30.5101 -21.9385
LeftShoulder1  2.05764 -5.67385 -15.64
LeftArm  -25.0095 4.45923 -38.4014
LeftForeArm  157.213 -51.1449 -166.635
LeftHand  -0.197525 4.1716 18.1121
RightShoulder  1.86081 3.25034 21.281
RightArm  -36.8265 0.4517 46.945
RightForeArm  117.495 75.1422 134.418
RightHand  -1.00633 3.27667 -13.6828
LeftUpLeg  21.0415 -2.08708 -11.8292
LeftLeg  21.8602 -8.85117 -2.0589
LeftFoot  -24.2122 0.913683 7.10031
LeftToes  -3.13779e-010 -2.47553e-011 -5.36621e-011
188
root  -0.277007 36.1725 0.923665 -89.8074 -87.5128 90.0447
RightUpLeg  -34.5049 2.85377 8.7986
RightLeg  45.9196 -9.62751 -10.7948
RightFoot  -3.40359 0.565142 -8.08874
RightToes  7.56698e-010 0 -3.6325e-017
Spine  6.3119 -5.156 -7.98676
Spine1  4.75528 -9.59223 16.0108
HEad  -24.1274 27.8956 -22.812
LeftShoulder1  2.18125 -5.82099 -16.6965
LeftArm  -23.541 4.51084 -39.3751
LeftForeArm  156.053 -56.3416 -163.98
LeftHand  -0.248092 3.76161 17.1461
RightShoulder  1.8882 3.4406 20.8911
RightArm  -35.9629 2.22664 46.9827
RightForeArm  87.6629 78.6696 101.454
RightHand  -1.12586 3.77003 -14.4326
LeftUpLeg  20.157 -3.64033 -11.5612
LeftLeg  22.422 -4.45193 -0.639208
LeftFoot  -20.8716 0.667671 6.01288
LeftToes  -3.13779e-010 -2.47553e-011 -5.36621e-011
189
root  0.181283 37.6989 0.590633 -31.2153 -86.664 31.1233
RightUpLeg  -30.2518 -3.28988 9.18261
RightLeg  35.4391 -7.17297 -5.92015
RightFoot  6.50802 1.03365 -6.60814
RightToes  7.56698e-010 0 -3.6325e-017
Spine  9.31064 -5.08177 -9.35063
Spine1  4.21862 -9.74407 16.7699
HEad  -24.6021 25.1418 -20.5632
LeftShoulder1  2.25893 -6.32074 -16.2794
LeftArm  -19.8015 6.09104 -44.7683
LeftForeArm  143.507 -68.7866 -150.343
LeftHand  -0.507856 2.00486 17.2896
RightShoulder  1.92214 3.5841 20.8117
RightArm  -34.1006 4.47539 49.6856
RightForeArm  24.8984 71.0971 34.3234
RightHand  -1.58951 5.85496 -16.5783
LeftUpLeg  16.2227 -6.15152 -9.20778
LeftLeg  25.4203 -6.5861 -3.18491
LeftFoot  -8.14398 0.0911727 0.388126
LeftToes  -3.13779e-010 -2.47553e-011 -5.36621e-011
190
root  0.786128 39.4693 0.203172 -16.016 -84.8057 15.8581
RightUpLeg  -23.7501 -8.12348 8.13867
RightLeg  20.5133 -2.25969 -0.741892
RightFoot  16.2555 -0.729979 3.19318
RightToes  7.56698e-010 0 -3.6325e-017
Spine  12.6332 -4.38868 -8.38851
Spine1  3.14943 -8.12636 13.2328
HEad  -22.5824 20.4669 -13.8144
LeftShoulder1  2.23859 -6.96344 -14.5085
LeftArm  -16.8395 5.56673 -50.7818
LeftForeArm  71.8412 -78.6942 -79.747
LeftHand  -0.977728 -1.20759 17.3586
RightShoulder  1.97457 3.75326 20.9072
RightArm  -31.0174 6.22138 52.3192
RightForeArm  7.5545 51.0406 12.8757
RightHand  -2.15266 7.86273 -19.0306
LeftUpLeg  8.66239 -5.64215 -6.54589
LeftLeg  31.5847 -7.6967 -4.60263
LeftFoot  9.00246 0.4451 -3.16397
LeftToes  -3.13779e-010 -2.47553e-011 -5.36621e-011
191
root  1.19568 40.8295 -0.050877 -12.5168 -85.4 12.9124
RightUpLeg  -17.5394 -5.99417 4.96053
RightLeg  9.14088 0.914245 2.17792
RightFoot  20.1838 -4.98978 18.3799
RightToes  7.56698e-010 0 -3.6325e-017
Spine  14.3743 -2.67184 -3.93772
Spine1  2.34178 -4.20266 5.44962
HEad  -19.7191 13.1663 -6.22068
LeftShoulder1  2.27572 -7.3075 -14.1383
LeftArm  -13.7815 0.831655 -53.7255
LeftForeArm  9.18443 -60.0076 -18.378
LeftHand  -1.42585 -4.39824 17.0619
RightShoulder  2.01771 4.14225 20.0367
RightArm  -24.0299 8.12552 53.9075
RightForeArm  2.79508 32.2761 6.73969
RightHand  -2.49309 8.55762 -20.8753
LeftUpLeg  -0.781722 -3.19172 -5.23467
LeftLeg  39.2594 0.545438 1.04163
LeftFoot  21.1557 0.33412 -1.61235
LeftToes  -3.13779e-010 -2.47553e-011 -5.36621e-011
192
root  1.36642 41.8844 -0.259125 -0.570137 -86.8271 1.65492
RightUpLeg  -13.1705 -1.71703 2.92422
RightLeg  6.8406 2.16319 2.08822
RightFoot  16.8799 -6.15185 24.445
RightToes  7.56698e-010 0 -3.6325e-017
Spine  14.9759 -0.445571 1.6371
Spine1  2.45314 0.290262 -2.26976
HEad  -18.1665 4.70648 -1.11888
LeftShoulder1  2.49711 -7.29455 -16.4098
LeftArm  -8.74765 -6.59773 -53.9909
LeftForeArm  -3.82569 -35.7185 -7.92869
LeftHand  -1.64195 -5.39527 17.8723
RightShoulder  1.98793 4.62155 17.9376
RightArm  -15.6895 10.4557 55.1504
RightForeArm  0.862332 19.1446 5.586
RightHand  -2.59206 8.48152 -21.7714
LeftUpLeg  -9.87639 -0.409428 -3.97531
LeftLeg  45.2944 9.85 10.7384
LeftFoot  22.6267 -0.336178 0.701683
LeftToes  -3.13779e-010 -2.47553e-011 -5.36621e-011
193
root  1.3505 42.6962 -0.547967 14.8159 -86.1203 -13.642
RightUpLeg  -8.22667 -0.996637 2.79655
RightLeg  10.6328 1.73492 0.0821414
RightFoot  10.7708 -3.31369 17.0749
RightToes  7.56698e-010 0 -3.6325e-017
Spine  15.4735 1.1028 5.21915
Spine1  2.89585 3.25766 -6.89995
HEad  -17.6064 -2.60916 1.9932
LeftShoulder1  2.79934 -7.38815 -19.1981
LeftArm  -8.88329 -11.9368 -53.3564
LeftForeArm  -7.79087 -16.7655 -6.29506
LeftHand  -1.55911 -3.82724 19.7775
RightShoulder  1.91157 4.75988 16.4813
RightArm  -15.6168 11.9363 55.6164
RightForeArm  6.856 13.322 8.58058
RightHand  -2.65071 8.52592 -22.1753
LeftUpLeg  -17.0472 0.156711 -2.95156
LeftLeg  45.6413 11.6125 12.8707
LeftFoot  17.3683 -0.215762 0.297146
LeftToes  -3.13779e-010 -2.47553e-011 -5.36621e-011
194
root  1.17183 42.912 -0.940105 12.529 -82.3106 -11.9334
RightUpLeg  -1.13327 -0.0458621 3.07578
RightLeg  14.459 -3.29709 -1.93563
RightFoot  6.69284 -1.26728 8.44449
RightToes  7.56698e-010 0 -3.6325e-017
Spine  15.902 1.12057 5.6876
Spine1  3.01199 3.54479 -7.97146
HEad  -17.3225 -7.41617 4.53445
LeftShoulder1  2.98074 -7.65014 -20.302
LeftArm  -24.6268 -11.0832 -52.012
LeftForeArm  2.55295 -6.77155 -9.01471
LeftHand  -1.37922 -2.13783 21.2712
RightShoulder  1.88763 4.52271 16.9108
RightArm  -9.56312 11.1757 55.8659
RightForeArm  3.33989 18.2064 7.3711
RightHand  -2.67885 8.61234 -22.2746
LeftUpLeg  -22.1868 -2.02345 -2.60601
LeftLeg  40.5126 7.7838 7.50849
LeftFoot  13.4086 1.15044 -5.50665
LeftToes  -3.13779e-010 -2.47553e-011 -5.36621e-011
